<?xml version="1.0" standalone="no"?>
<!DOCTYPE svg PUBLIC "-//W3C//DTD SVG 20010904//EN"
 "http://www.w3.org/TR/2001/REC-SVG-20010904/DTD/svg10.dtd">
<svg version="1.0" xmlns="http://www.w3.org/2000/svg"
 width="873.000000pt" height="722.000000pt" viewBox="0 0 873.000000 722.000000"
 preserveAspectRatio="xMidYMid meet">

<g transform="translate(0.000000,722.000000) scale(0.100000,-0.100000)"
fill="#000000" stroke="none">
<path d="M1015 7194 c-187 -35 -312 -85 -467 -187 -273 -179 -466 -476 -523
-807 -32 -181 -17 -425 36 -597 57 -185 196 -405 337 -533 286 -261 674 -370
1047 -295 366 74 675 312 840 650 97 199 128 333 128 555 0 224 -36 378 -135
572 -160 315 -452 546 -788 625 -136 32 -356 40 -475 17z m417 -18 c43 -8 110
-27 149 -41 92 -33 250 -110 277 -135 12 -11 26 -20 32 -20 5 0 10 -4 10 -10
0 -5 4 -10 9 -10 20 0 181 -148 181 -166 0 -8 4 -14 10 -14 14 0 100 -112 94
-122 -3 -4 0 -8 5 -8 6 0 11 -6 11 -14 0 -8 4 -16 8 -18 35 -14 143 -290 168
-428 17 -96 17 -323 0 -420 -24 -131 -135 -414 -168 -428 -4 -2 -8 -10 -8 -18
0 -8 -5 -14 -12 -14 -6 0 -9 -3 -5 -6 8 -8 -80 -123 -99 -131 -8 -3 -12 -8 -9
-12 5 -9 -45 -57 -125 -122 -30 -24 -56 -47 -58 -51 -2 -5 -8 -8 -13 -8 -6 0
-19 -8 -29 -18 -38 -35 -234 -125 -343 -156 -211 -61 -475 -53 -679 20 -89 33
-288 132 -288 145 0 5 -4 9 -10 9 -6 0 -18 8 -28 18 -11 9 -54 46 -96 81 -42
35 -75 66 -72 68 3 3 -7 15 -22 28 -32 27 -97 115 -85 115 4 0 0 5 -10 11 -9
5 -17 16 -17 24 0 7 -6 20 -14 28 -45 45 -137 288 -161 426 -19 107 -19 295 0
402 24 138 116 381 161 426 8 8 14 21 14 29 0 8 5 14 12 14 6 0 9 3 5 6 -8 8
80 123 99 131 8 3 12 9 9 13 -3 5 25 35 62 67 36 32 75 66 85 76 10 9 22 17
28 17 6 0 10 5 10 10 0 6 5 10 10 10 6 0 20 8 30 18 30 28 201 110 295 142 46
16 117 33 157 39 40 6 84 13 98 15 46 8 244 -3 322 -18z"/>
<path d="M7305 7194 c-323 -58 -627 -253 -798 -511 -24 -37 -229 -387 -454
-778 -226 -390 -848 -1468 -1384 -2395 -535 -927 -988 -1716 -1007 -1754 -43
-86 -75 -182 -98 -288 -25 -114 -26 -361 -1 -475 54 -253 168 -463 344 -634
146 -142 302 -237 481 -293 275 -86 589 -71 851 43 196 84 386 234 502 397 31
44 418 704 859 1469 442 765 1071 1854 1398 2420 328 567 613 1069 634 1117
117 269 130 579 36 868 -137 426 -531 758 -972 819 -105 15 -294 12 -391 -5z
m450 -19 c436 -91 783 -407 909 -827 40 -134 50 -204 49 -363 0 -229 -43 -393
-156 -595 -29 -52 -340 -592 -691 -1200 -352 -608 -965 -1670 -1364 -2360
-398 -690 -748 -1286 -777 -1325 -337 -451 -951 -607 -1472 -374 -168 75 -384
258 -490 414 -230 340 -273 789 -110 1162 18 43 463 821 987 1728 524 908
1139 1972 1366 2365 227 393 441 762 476 819 74 121 199 260 309 341 148 110
351 195 539 225 107 18 316 13 425 -10z"/>
<path d="M4135 7184 c-323 -58 -627 -253 -798 -511 -24 -37 -229 -387 -454
-778 -226 -390 -848 -1468 -1384 -2395 -535 -927 -988 -1716 -1007 -1754 -43
-86 -75 -182 -98 -288 -25 -114 -26 -361 -1 -475 54 -253 168 -463 344 -634
146 -142 302 -237 481 -293 275 -86 589 -71 851 43 196 84 386 234 502 397 31
44 418 704 859 1469 442 765 1071 1854 1398 2420 328 567 613 1069 634 1117
117 269 130 579 36 868 -137 426 -531 758 -972 819 -105 15 -294 12 -391 -5z
m455 -18 c289 -63 540 -222 714 -453 195 -260 280 -589 231 -903 -20 -132 -49
-230 -99 -335 -65 -136 -2820 -4899 -2880 -4980 -273 -363 -741 -546 -1191
-464 -244 44 -520 199 -676 381 -306 356 -388 819 -220 1254 20 51 547 973
1437 2514 774 1339 1424 2461 1447 2494 169 249 481 448 777 496 41 6 82 13
90 15 38 9 303 -5 370 -19z"/>
</g>
</svg>
