<?xml version="1.0" standalone="no"?>
<!DOCTYPE svg PUBLIC "-//W3C//DTD SVG 20010904//EN"
 "http://www.w3.org/TR/2001/REC-SVG-20010904/DTD/svg10.dtd">
<svg version="1.0" xmlns="http://www.w3.org/2000/svg"
 width="873.000000pt" height="873.000000pt" viewBox="0 0 873.000000 873.000000"
 preserveAspectRatio="xMidYMid meet">
<metadata>
Created by potrace 1.14, written by Peter Selinger 2001-2017
</metadata>
<g transform="translate(0.000000,873.000000) scale(0.100000,-0.100000)"
fill="#000000" stroke="none">
<path d="M1040 7955 c-41 -7 -104 -20 -140 -30 -72 -18 -233 -84 -238 -97 -2
-4 -8 -6 -13 -2 -5 3 -9 0 -9 -5 0 -6 -6 -11 -12 -11 -7 0 -35 -16 -63 -35
-27 -20 -61 -43 -75 -53 -14 -9 -38 -29 -53 -44 -16 -15 -36 -33 -45 -40 -15
-12 -48 -48 -124 -136 -16 -17 -28 -35 -28 -38 0 -3 -11 -19 -25 -36 -14 -16
-25 -36 -25 -43 0 -7 -3 -15 -7 -17 -12 -5 -65 -108 -56 -108 4 0 3 -4 -3 -8
-18 -11 -73 -176 -93 -277 -14 -67 -18 -128 -16 -240 2 -172 6 -208 36 -313
12 -43 22 -81 24 -87 1 -5 7 -23 14 -40 7 -16 12 -31 12 -32 -2 -17 121 -226
169 -288 77 -99 336 -315 379 -315 6 0 11 -5 11 -10 0 -6 3 -9 8 -8 4 1 29 -8
55 -20 27 -12 53 -22 58 -22 5 0 9 -5 9 -11 0 -5 4 -8 9 -4 5 3 12 1 16 -5 4
-6 11 -8 16 -4 5 3 15 1 22 -4 7 -5 37 -15 67 -21 30 -6 66 -14 80 -16 115
-24 320 -24 425 -1 79 17 127 30 170 46 62 22 78 27 89 28 5 0 12 4 15 9 3 4
24 16 46 26 56 26 185 109 185 119 0 4 7 8 16 8 8 0 13 4 9 9 -3 5 3 12 14 16
26 8 197 191 222 237 7 12 17 28 23 35 27 30 36 43 36 48 0 3 16 39 35 80 20
41 35 76 33 78 -2 2 3 11 11 20 7 10 10 17 7 17 -4 0 -1 10 6 23 7 12 13 25
14 30 1 4 3 10 4 15 1 4 2 11 1 16 -1 4 3 14 9 21 6 7 10 17 9 21 -1 5 0 11 1
14 5 14 20 98 26 150 9 77 4 325 -6 325 -1 0 -3 15 -6 34 -2 19 -11 56 -19 83
-8 26 -14 49 -14 51 0 1 -4 15 -10 30 -6 16 -11 34 -11 40 0 7 -8 24 -17 37
-10 14 -16 27 -15 30 3 5 -39 101 -48 110 -3 3 -11 15 -17 28 -7 12 -19 32
-25 45 -7 12 -15 24 -18 27 -3 3 -24 30 -46 60 -45 59 -129 147 -185 193 -48
39 -182 127 -193 126 -5 0 -12 3 -15 8 -11 15 -68 43 -75 36 -3 -3 -6 0 -6 7
0 7 -3 10 -6 7 -4 -3 -16 -1 -28 5 -11 7 -24 13 -28 14 -5 1 -10 3 -13 4 -3 1
-8 3 -12 4 -5 1 -34 10 -66 20 -33 9 -74 18 -91 20 -18 2 -38 6 -44 10 -21 13
-276 13 -352 1z"/>
<path d="M7360 7958 c-25 -4 -61 -10 -80 -13 -19 -3 -65 -14 -102 -25 -38 -11
-70 -20 -73 -20 -3 0 -20 -7 -38 -17 -17 -9 -35 -18 -39 -19 -5 -1 -10 -3 -13
-4 -3 -1 -8 -3 -12 -5 -90 -25 -383 -244 -383 -285 0 -7 -3 -11 -6 -7 -7 7
-54 -46 -54 -62 0 -6 -4 -11 -9 -11 -8 0 -27 -26 -66 -91 -6 -9 -17 -24 -24
-33 -7 -9 -10 -16 -7 -16 4 0 0 -7 -8 -16 -9 -8 -16 -21 -16 -28 0 -8 -7 -19
-15 -26 -8 -7 -12 -16 -10 -21 3 -4 -3 -12 -12 -18 -10 -6 -14 -11 -10 -11 4
0 -3 -15 -17 -33 -15 -19 -26 -37 -26 -40 0 -4 -20 -41 -45 -83 -25 -41 -45
-78 -45 -81 0 -3 -9 -17 -19 -32 -11 -15 -21 -34 -23 -42 -2 -8 -8 -18 -15
-24 -7 -5 -13 -17 -15 -25 -2 -8 -11 -23 -20 -34 -10 -11 -18 -26 -18 -33 0
-7 -5 -13 -11 -13 -5 0 -7 -4 -4 -10 3 -5 1 -10 -4 -10 -6 0 -11 -5 -11 -11 0
-6 -9 -24 -21 -40 -11 -16 -17 -29 -12 -29 4 0 3 -4 -3 -8 -17 -12 -54 -79
-47 -85 3 -4 1 -7 -5 -7 -6 0 -19 -17 -29 -37 -9 -21 -20 -40 -24 -43 -4 -3
-9 -12 -11 -20 -2 -8 -11 -23 -20 -34 -10 -10 -15 -23 -12 -28 3 -4 0 -8 -6
-8 -10 0 -35 -48 -32 -62 1 -5 -2 -8 -6 -8 -10 0 -37 -50 -34 -62 1 -5 -2 -8
-7 -8 -8 0 -39 -55 -40 -72 -1 -5 -10 -17 -21 -28 -12 -12 -18 -25 -15 -29 2
-5 -2 -12 -11 -15 -8 -3 -12 -10 -9 -16 3 -5 1 -10 -4 -10 -6 0 -11 -4 -11
-10 0 -5 -16 -34 -35 -65 -20 -30 -38 -63 -42 -73 -3 -9 -13 -25 -21 -34 -8
-10 -12 -18 -8 -18 4 0 2 -6 -4 -12 -23 -28 -70 -104 -70 -114 0 -6 -9 -23
-20 -36 -10 -14 -16 -28 -13 -32 3 -3 2 -6 -3 -6 -5 0 -18 -17 -29 -37 -11
-21 -32 -57 -47 -80 -15 -23 -28 -44 -28 -47 0 -3 -38 -70 -84 -150 -47 -80
-83 -146 -80 -146 3 0 -4 -10 -16 -22 -11 -12 -20 -27 -20 -33 0 -7 -9 -22
-20 -35 -18 -21 -21 -28 -19 -46 0 -3 -8 -12 -18 -20 -10 -7 -13 -14 -8 -14 6
0 6 -3 -1 -8 -13 -9 -58 -82 -50 -82 3 0 -2 -9 -12 -20 -9 -12 -17 -24 -17
-28 0 -4 -10 -21 -23 -39 -12 -17 -22 -39 -22 -48 0 -9 -4 -14 -9 -11 -5 3
-11 -3 -14 -14 -8 -31 -9 -33 -29 -54 -9 -10 -15 -23 -12 -28 3 -4 0 -8 -5 -8
-6 0 -11 -6 -11 -14 0 -8 -4 -16 -9 -18 -5 -1 -11 -10 -13 -18 -2 -8 -5 -17
-9 -20 -15 -14 -48 -78 -42 -83 3 -4 2 -7 -4 -7 -5 0 -22 -21 -37 -47 -15 -27
-36 -63 -46 -80 -11 -18 -17 -33 -13 -33 4 0 -2 -7 -13 -16 -10 -8 -12 -13 -4
-9 10 4 9 2 -2 -8 -10 -8 -18 -18 -18 -22 0 -5 -11 -23 -26 -42 -14 -18 -22
-38 -19 -43 3 -6 2 -10 -3 -10 -8 0 -29 -35 -70 -115 -9 -16 -22 -36 -29 -43
-7 -8 -11 -18 -8 -23 4 -5 2 -9 -2 -9 -11 0 -47 -60 -36 -60 4 0 0 -5 -9 -11
-10 -5 -18 -17 -18 -25 0 -8 -9 -24 -20 -36 -10 -12 -17 -25 -14 -30 3 -4 1
-8 -4 -8 -8 0 -42 -64 -41 -76 0 -4 -3 -10 -8 -13 -13 -9 -98 -155 -96 -163 2
-5 -2 -8 -7 -8 -6 0 -10 -6 -10 -14 0 -8 -5 -16 -11 -18 -5 -2 -11 -12 -13
-21 -1 -10 -9 -23 -17 -28 -8 -5 -10 -9 -6 -9 5 0 -1 -12 -12 -26 -11 -15 -19
-30 -16 -34 3 -4 -2 -11 -11 -14 -8 -3 -12 -10 -9 -16 3 -5 1 -10 -4 -10 -6 0
-11 -7 -11 -15 0 -8 -5 -15 -11 -15 -5 0 -7 -5 -4 -10 3 -6 0 -13 -9 -16 -8
-3 -17 -12 -20 -20 -4 -10 -1 -13 7 -9 6 4 5 1 -4 -7 -15 -13 -28 -37 -25 -48
0 -3 -9 -16 -21 -30 -13 -13 -23 -30 -23 -37 0 -7 -4 -13 -9 -13 -8 0 -24 -37
-22 -52 1 -5 -3 -8 -7 -8 -10 0 -37 -50 -34 -62 1 -5 -3 -8 -8 -8 -6 0 -15
-10 -20 -22 -6 -13 -19 -38 -30 -55 -11 -18 -17 -33 -14 -33 2 0 -4 -10 -16
-22 -11 -12 -20 -26 -20 -31 0 -5 -9 -22 -21 -38 -11 -16 -18 -29 -14 -29 3 0
1 -6 -5 -12 -26 -32 -58 -87 -52 -92 3 -3 -1 -6 -8 -6 -7 0 -11 -3 -7 -6 3 -3
1 -11 -4 -18 -22 -26 -76 -125 -71 -130 3 -3 0 -6 -7 -6 -7 0 -10 -4 -7 -9 3
-5 -1 -12 -10 -15 -8 -3 -12 -10 -9 -16 3 -5 2 -10 -2 -10 -9 0 -59 -111 -56
-122 2 -5 -1 -8 -6 -8 -5 0 -13 -15 -17 -33 -10 -41 -9 -39 -17 -57 -4 -8 -8
-24 -10 -35 -1 -11 -6 -25 -9 -30 -6 -11 -12 -47 -25 -150 -8 -66 -8 -219 0
-275 4 -25 9 -59 11 -77 3 -17 10 -51 17 -75 6 -24 12 -47 13 -53 1 -5 4 -14
8 -20 3 -5 9 -25 13 -43 3 -17 11 -32 15 -32 5 0 7 -7 4 -15 -4 -8 -1 -15 5
-15 6 0 11 -10 11 -23 0 -13 9 -33 20 -45 12 -12 18 -22 15 -22 -9 0 27 -63
45 -78 11 -10 12 -12 1 -6 -9 5 -8 -2 5 -19 10 -15 22 -27 27 -27 4 0 7 -7 7
-15 0 -8 5 -15 10 -15 6 0 10 -6 10 -12 0 -7 39 -53 86 -103 47 -49 83 -83 78
-75 -4 8 8 -1 27 -20 42 -44 154 -122 163 -113 3 3 6 2 6 -4 0 -8 83 -56 100
-58 3 0 15 -6 26 -13 12 -6 24 -8 28 -5 3 3 6 2 6 -4 0 -6 21 -16 48 -23 63
-18 61 -17 67 -20 5 -3 8 -3 45 -13 117 -31 304 -41 445 -23 77 9 199 39 207
51 4 5 8 7 8 3 0 -20 270 104 270 124 0 5 4 7 9 4 5 -3 20 5 35 19 14 13 26
21 26 17 1 -4 10 4 21 18 12 14 24 24 28 24 8 -2 38 19 40 29 0 4 3 7 6 7 11
-1 75 68 75 81 0 7 3 10 6 6 6 -6 34 16 34 26 0 3 14 21 31 40 17 19 31 38 30
41 0 3 11 18 24 32 14 15 25 30 25 35 0 4 21 43 48 86 26 43 56 95 67 116 11
20 24 37 28 37 5 0 7 7 3 15 -3 8 -2 15 3 15 4 0 13 10 19 23 6 12 25 45 41
72 17 28 42 70 56 95 14 25 34 60 45 78 11 17 17 32 13 32 -4 0 2 7 13 16 10
8 12 12 4 8 -8 -4 -5 3 8 15 12 12 20 26 17 32 -4 5 -1 9 4 9 6 0 11 7 11 15
0 8 3 15 8 15 4 0 15 14 24 31 11 18 13 27 5 24 -6 -4 -4 0 6 8 9 8 17 17 17
20 0 4 16 31 35 61 19 29 31 56 28 60 -4 3 -2 6 4 6 10 0 38 49 35 63 -1 4 2
7 6 7 5 0 17 18 27 40 10 22 21 40 25 40 3 0 12 16 20 35 8 19 18 35 22 35 5
0 7 4 4 9 -3 5 1 14 9 21 8 7 12 16 9 21 -3 5 -1 9 4 9 5 0 24 28 42 63 18 34
36 64 39 67 12 11 42 70 35 70 -4 0 1 7 12 15 10 8 15 15 9 15 -6 0 -6 3 1 8
15 10 85 132 76 132 -4 0 -2 4 4 8 12 8 69 103 69 115 0 4 5 11 11 15 5 4 18
24 27 44 10 20 22 40 27 43 6 4 8 11 5 16 -4 5 -1 9 5 9 6 0 8 4 5 10 -3 5 -2
10 3 10 5 0 17 15 26 33 8 17 24 45 35 61 11 17 18 33 15 38 -3 4 0 8 6 8 6 0
15 12 21 27 5 14 23 46 40 71 16 24 31 49 32 55 1 6 10 20 19 31 10 10 15 23
12 28 -3 4 0 8 5 8 6 0 11 4 11 10 0 5 11 26 25 46 14 20 22 40 19 45 -3 5 -1
9 5 9 9 0 87 133 91 155 1 6 8 14 16 18 8 4 14 13 14 18 0 6 10 25 22 42 13
18 16 28 7 23 -7 -4 -6 -1 4 7 9 8 17 18 17 22 0 4 9 19 19 34 11 15 21 33 23
41 2 7 11 22 21 32 10 10 15 23 12 28 -4 6 -2 10 3 10 8 0 21 22 75 123 12 23
25 44 28 47 9 8 33 54 32 61 -1 3 9 18 22 33 14 16 22 33 19 37 -3 5 -1 9 4 9
5 0 17 18 27 40 10 22 21 40 24 40 7 0 28 50 27 62 -1 4 8 14 19 22 11 9 16
16 10 16 -6 0 -6 3 1 8 13 9 89 145 86 155 -1 4 2 7 7 7 10 0 19 15 57 90 10
19 20 37 23 40 4 3 17 25 30 50 13 25 29 52 36 60 12 15 23 41 22 50 -1 3 8
15 18 28 11 12 18 24 15 27 -3 2 6 15 19 29 14 14 21 26 17 26 -4 0 0 7 8 16
9 8 14 19 11 24 -3 4 2 11 11 14 8 3 12 10 9 16 -3 5 -1 10 5 10 6 0 8 5 5 10
-3 6 -2 10 3 10 5 0 17 18 28 40 10 22 23 40 27 40 5 0 5 5 2 10 -3 6 -1 10 5
10 6 0 8 5 5 10 -3 6 -1 10 5 10 6 0 8 5 5 10 -3 6 -2 10 4 10 6 0 25 29 42
65 18 36 36 65 41 65 4 0 8 6 8 14 0 7 7 19 15 26 9 7 13 15 10 18 -3 3 6 20
20 37 13 18 26 39 27 46 2 8 5 16 8 19 10 10 41 65 47 83 3 9 9 17 14 17 5 0
9 6 9 14 0 7 9 25 20 38 10 14 16 28 13 32 -3 3 -1 6 6 6 7 0 10 4 7 9 -4 5
-3 11 2 13 11 4 67 101 64 111 -1 4 3 7 9 7 5 0 7 5 4 10 -3 6 -1 10 4 10 6 0
11 7 11 15 0 8 5 15 12 15 6 0 9 3 5 6 -3 3 3 15 13 27 11 11 17 24 14 29 -3
4 0 8 6 8 6 0 8 5 5 10 -3 6 1 13 9 16 9 3 13 10 10 15 -3 5 0 9 6 9 6 0 8 5
5 10 -3 6 -1 10 5 10 6 0 8 5 5 10 -3 6 -2 10 3 10 10 0 47 79 44 93 -1 4 3 7
10 7 6 0 8 3 5 7 -4 3 -2 12 3 19 10 11 21 45 22 72 1 6 4 12 8 12 4 0 7 6 8
13 0 6 3 21 6 32 31 114 40 186 39 325 0 102 -6 178 -19 230 -3 14 -7 34 -9
45 -2 11 -4 21 -5 23 -3 2 -3 2 -15 47 -4 17 -10 35 -14 40 -3 6 -6 16 -7 23
-2 7 -12 33 -23 58 -12 24 -21 48 -21 54 0 5 -4 10 -10 10 -5 0 -9 3 -8 8 2
12 -15 46 -31 60 -13 11 -13 12 -1 6 13 -7 13 -6 0 12 -8 10 -17 21 -20 24 -3
3 -11 17 -17 33 -7 15 -17 27 -23 27 -5 0 -10 6 -10 14 0 8 -10 22 -22 30 -12
9 -19 16 -14 16 5 0 -3 11 -18 25 -14 13 -26 28 -26 33 0 5 -12 14 -26 21 -15
6 -24 14 -21 17 6 7 -59 67 -67 62 -3 -2 -13 7 -21 20 -9 12 -22 22 -28 22 -7
0 -18 9 -25 20 -7 11 -19 20 -27 20 -8 0 -15 5 -15 11 0 5 -4 7 -10 4 -5 -3
-10 -1 -10 4 0 6 -6 11 -14 11 -8 0 -16 4 -18 8 -1 4 -20 18 -41 30 -21 12
-35 16 -31 10 4 -7 -2 -5 -13 5 -11 9 -23 14 -26 10 -4 -3 -7 -2 -7 4 0 9 -48
28 -59 23 -2 -1 -7 2 -10 7 -5 8 -91 36 -146 48 -11 3 -45 10 -75 16 -65 14
-295 18 -360 7z"/>
<path d="M4228 7955 c-2 -2 -23 -5 -48 -8 -25 -4 -55 -9 -67 -12 -13 -3 -33
-7 -45 -10 -49 -10 -113 -28 -123 -35 -5 -4 -28 -13 -50 -20 -48 -15 -159 -71
-163 -82 -2 -4 -10 -8 -18 -8 -8 0 -14 -5 -14 -11 0 -5 -4 -8 -9 -5 -5 3 -14
-1 -21 -9 -7 -8 -16 -15 -21 -15 -9 0 -51 -34 -96 -77 -13 -13 -27 -23 -31
-23 -4 -1 -12 -11 -19 -23 -6 -12 -14 -21 -17 -20 -3 1 -19 -11 -35 -27 -16
-17 -28 -30 -25 -30 2 0 -12 -16 -31 -37 -19 -20 -32 -39 -30 -43 2 -3 -5 -13
-16 -20 -10 -8 -19 -18 -19 -22 0 -4 -13 -27 -29 -50 -16 -24 -27 -46 -25 -50
3 -5 1 -8 -5 -8 -5 0 -13 -10 -17 -22 -4 -13 -10 -25 -13 -28 -8 -6 -148 -250
-152 -265 -2 -5 -11 -19 -21 -29 -9 -10 -15 -23 -12 -28 3 -4 1 -8 -5 -8 -6 0
-13 -11 -17 -25 -3 -14 -9 -25 -13 -25 -7 0 -35 -51 -32 -58 1 -1 -5 -10 -14
-18 -8 -9 -13 -20 -10 -25 4 -5 2 -9 -3 -9 -4 0 -19 -19 -32 -42 -12 -24 -29
-51 -37 -60 -8 -9 -12 -21 -9 -26 3 -6 -1 -12 -9 -16 -8 -3 -15 -12 -15 -21 0
-8 -5 -15 -12 -15 -6 0 -9 -3 -5 -6 3 -4 -6 -23 -21 -42 -15 -20 -20 -33 -12
-28 9 4 8 2 -2 -7 -10 -8 -15 -17 -11 -20 3 -4 2 -7 -4 -7 -9 0 -36 -45 -37
-63 -1 -4 -6 -11 -11 -15 -6 -4 -26 -37 -45 -74 -19 -38 -38 -68 -42 -68 -5 0
-8 -6 -8 -14 0 -7 -9 -25 -21 -40 -11 -14 -18 -26 -14 -26 3 0 -5 -15 -19 -33
-14 -19 -23 -37 -19 -40 3 -4 1 -7 -5 -7 -7 0 -12 -4 -12 -9 0 -4 -16 -35 -35
-67 -19 -32 -36 -63 -37 -69 -1 -5 -6 -15 -12 -22 -32 -36 -36 -44 -31 -53 3
-6 1 -10 -4 -10 -6 0 -11 -7 -11 -15 0 -8 -4 -15 -8 -15 -7 0 -33 -43 -37 -60
0 -3 -16 -30 -36 -60 -35 -55 -46 -77 -47 -94 0 -5 -7 -13 -16 -18 -9 -5 -16
-15 -16 -22 0 -7 -13 -31 -30 -54 -16 -22 -32 -52 -36 -66 -3 -15 -11 -23 -17
-19 -6 4 -8 0 -4 -10 3 -9 3 -17 -1 -19 -11 -5 -97 -152 -95 -160 2 -5 -2 -8
-7 -8 -6 0 -10 -5 -10 -11 0 -6 -7 -17 -15 -26 -8 -8 -13 -19 -10 -24 4 -5 2
-9 -3 -9 -9 0 -29 -36 -30 -54 0 -5 -5 -12 -10 -15 -5 -3 -31 -44 -57 -91 -26
-47 -52 -87 -56 -88 -5 -2 -7 -7 -4 -12 3 -5 -2 -16 -11 -24 -8 -9 -12 -16 -8
-16 4 0 -2 -10 -14 -23 -12 -13 -19 -27 -15 -30 3 -4 1 -7 -6 -7 -7 0 -9 -4
-6 -10 3 -5 2 -10 -3 -10 -9 0 -37 -50 -34 -62 1 -5 -2 -8 -7 -8 -5 0 -15 -15
-22 -32 -7 -18 -21 -42 -31 -52 -9 -10 -15 -22 -13 -26 2 -3 -7 -19 -20 -34
-14 -16 -22 -33 -19 -37 3 -5 0 -9 -5 -9 -6 0 -11 -7 -11 -15 0 -8 -5 -15 -11
-15 -5 0 -7 -4 -4 -10 3 -5 1 -10 -5 -10 -6 0 -8 -4 -5 -10 3 -5 2 -10 -3 -10
-9 0 -37 -50 -34 -62 1 -5 -2 -8 -6 -8 -8 0 -36 -51 -32 -59 1 -2 -2 -7 -7
-10 -16 -11 -72 -109 -66 -115 4 -3 1 -6 -6 -6 -7 0 -10 -4 -7 -9 3 -5 -1 -12
-10 -15 -8 -3 -12 -10 -9 -16 3 -5 2 -10 -3 -10 -5 0 -22 -26 -37 -57 -16 -32
-32 -60 -36 -63 -10 -8 -33 -54 -31 -62 1 -5 -3 -8 -10 -8 -6 0 -8 -3 -5 -7 4
-3 -1 -12 -11 -20 -11 -10 -12 -12 -2 -8 10 4 9 2 -2 -8 -10 -8 -15 -17 -11
-20 3 -4 2 -7 -4 -7 -9 0 -39 -53 -31 -57 1 -1 -7 -12 -20 -25 -12 -14 -19
-28 -15 -31 3 -4 0 -7 -7 -7 -7 0 -11 -3 -7 -6 3 -3 -3 -15 -13 -27 -11 -11
-17 -24 -14 -29 3 -4 0 -8 -5 -8 -6 0 -11 -7 -11 -15 0 -8 -5 -15 -11 -15 -5
0 -7 -5 -4 -10 3 -6 1 -10 -4 -10 -6 0 -11 -5 -11 -11 0 -6 -9 -24 -21 -40
-11 -16 -17 -29 -12 -29 4 0 0 -5 -9 -11 -10 -5 -18 -16 -18 -23 0 -7 -9 -25
-21 -40 -11 -14 -17 -26 -13 -26 4 0 -1 -9 -11 -20 -10 -11 -15 -20 -12 -20 4
0 -1 -9 -11 -20 -9 -12 -15 -22 -12 -23 3 -1 -5 -13 -17 -26 -12 -13 -20 -28
-17 -33 3 -4 0 -8 -6 -8 -6 0 -8 -4 -5 -10 3 -5 1 -10 -5 -10 -6 0 -9 -4 -6
-9 3 -5 -1 -12 -10 -15 -8 -3 -12 -10 -9 -16 3 -5 2 -10 -2 -10 -5 0 -14 -9
-21 -21 -11 -17 -11 -20 0 -14 7 3 6 1 -3 -7 -8 -7 -22 -28 -30 -45 -7 -18
-17 -33 -21 -33 -5 0 -8 -5 -8 -11 0 -6 -9 -22 -20 -36 -11 -14 -17 -29 -14
-34 3 -5 0 -9 -6 -9 -6 0 -9 -4 -6 -9 4 -5 3 -11 -2 -13 -10 -4 -72 -105 -72
-117 0 -5 -7 -14 -15 -21 -8 -7 -12 -16 -9 -21 3 -5 1 -9 -3 -9 -5 0 -17 -14
-26 -30 -10 -17 -15 -30 -12 -30 3 0 -3 -10 -14 -22 -11 -11 -18 -25 -15 -30
3 -4 1 -8 -4 -8 -4 0 -19 -21 -32 -47 -13 -27 -30 -54 -37 -61 -12 -13 -17
-27 -14 -44 0 -5 -3 -8 -9 -8 -8 0 -51 -79 -55 -100 0 -3 -6 -15 -13 -26 -12
-22 -42 -107 -47 -134 -2 -8 -4 -15 -5 -15 -1 0 -3 -7 -5 -15 -2 -8 -7 -26
-10 -40 -3 -14 -8 -38 -10 -55 -2 -16 -8 -52 -12 -80 -9 -64 -9 -204 1 -275 4
-30 8 -67 9 -82 1 -15 6 -30 10 -34 4 -4 7 -16 7 -27 0 -30 60 -200 79 -221
13 -15 13 -18 1 -11 -11 6 -10 3 3 -12 9 -11 17 -25 17 -32 0 -7 14 -32 30
-56 17 -24 30 -48 30 -53 0 -6 4 -12 8 -14 5 -2 23 -25 42 -53 34 -49 160
-186 160 -173 0 4 18 -12 40 -34 22 -23 40 -38 40 -34 0 4 12 -5 27 -19 15
-14 33 -25 40 -25 7 0 13 -5 13 -11 0 -5 4 -8 9 -5 5 3 14 -1 21 -8 16 -20 87
-56 94 -49 3 4 6 1 6 -5 0 -7 6 -12 13 -12 6 0 25 -7 41 -15 15 -8 32 -13 36
-10 5 3 10 1 12 -4 1 -6 15 -12 30 -15 14 -2 35 -9 45 -14 16 -8 57 -17 188
-41 70 -13 288 -5 380 13 81 16 207 56 216 69 3 5 9 8 13 6 12 -4 76 24 76 33
0 4 3 7 8 6 13 -4 52 13 52 23 0 5 3 8 8 7 10 -4 92 44 92 54 0 4 5 8 11 8 7
0 30 15 53 34 58 47 164 150 146 141 -8 -4 -1 5 16 21 39 36 94 108 94 123 0
6 5 11 10 11 6 0 10 7 10 15 0 8 4 15 8 15 4 0 21 26 37 58 17 31 32 59 35 62
14 14 39 68 33 74 -3 3 -1 6 4 6 10 0 97 146 91 152 -1 2 7 13 17 26 11 12 18
25 17 29 -2 3 0 9 5 12 5 3 25 33 44 66 19 33 40 69 46 80 7 11 16 28 19 37 3
10 11 18 16 18 5 0 7 4 4 9 -3 5 1 14 9 21 8 7 12 16 9 21 -3 5 -1 9 5 9 6 0
13 11 17 25 3 14 9 25 13 25 4 0 18 20 32 45 42 80 55 103 73 129 9 14 14 26
11 26 -3 0 -1 6 5 12 22 26 59 88 53 88 -3 0 1 8 10 18 10 10 14 22 10 25 -3
4 -2 7 4 7 9 0 37 50 33 59 -1 2 5 8 14 13 9 5 16 13 16 19 0 5 11 27 24 48
14 21 22 42 19 45 -4 3 -2 6 4 6 10 0 40 53 42 73 1 4 10 16 21 27 12 12 18
25 15 30 -4 6 -2 10 2 10 11 0 47 60 36 60 -4 0 0 5 10 11 9 5 17 15 17 20 0
6 9 24 21 40 11 16 17 29 12 29 -4 0 -2 4 5 9 7 4 14 16 16 25 1 10 7 21 12
24 13 10 46 62 39 62 -4 0 1 7 9 16 9 8 14 20 11 25 -4 5 -2 9 3 9 9 0 54 75
52 86 -1 4 2 10 7 13 13 9 56 81 48 81 -3 0 3 10 14 22 11 11 18 25 15 30 -3
4 0 8 6 8 6 0 14 8 17 18 4 9 17 34 30 55 13 20 20 37 16 37 -5 0 -3 4 2 8 15
10 88 134 88 149 0 7 4 10 9 7 7 -5 12 10 9 29 0 4 4 7 9 7 6 0 10 7 10 15 0
8 5 15 11 15 5 0 7 5 4 10 -3 6 1 13 10 16 9 4 14 13 11 20 -3 8 -1 14 5 14 5
0 14 12 19 26 6 14 24 46 42 71 17 25 25 43 17 39 -8 -4 -6 -1 4 7 9 8 17 19
17 26 0 6 5 11 12 11 6 0 8 3 5 7 -4 3 -1 13 7 22 8 9 16 23 18 31 2 8 8 19
15 25 7 5 13 17 15 25 2 8 11 23 20 34 10 10 15 23 12 28 -3 4 0 8 7 8 7 0 10
3 6 6 -3 3 3 15 14 27 10 11 19 29 19 39 0 10 7 21 15 24 8 4 12 10 9 15 -3 5
-1 9 4 9 10 0 54 86 50 95 -2 2 5 10 14 17 9 7 18 20 20 28 2 8 10 22 19 32
16 19 64 109 62 118 -1 3 5 9 13 13 8 5 12 12 9 18 -4 5 -2 9 3 9 8 0 35 46
36 63 1 4 6 11 12 15 5 4 18 24 27 44 10 20 22 40 27 43 6 4 8 11 5 16 -4 5
-1 9 5 9 6 0 9 4 6 9 -3 5 1 12 10 15 8 3 12 10 9 16 -3 5 -1 10 5 10 6 0 8 5
5 10 -3 6 -2 10 2 10 10 0 47 66 42 75 -2 4 4 11 14 16 9 6 15 14 12 20 -4 5
-1 9 5 9 6 0 8 5 5 10 -3 6 -2 10 3 10 5 0 15 14 22 30 7 17 17 30 22 30 6 0
8 6 5 14 -3 8 1 17 9 20 8 3 14 10 14 17 0 6 9 23 20 39 11 15 17 30 13 34 -3
3 0 6 7 6 7 0 10 3 7 7 -4 3 0 11 8 17 7 6 15 17 17 25 2 8 9 22 16 30 7 9 13
21 14 26 0 6 8 16 17 23 12 10 13 12 1 6 -8 -4 -5 4 8 18 12 13 19 28 15 31
-3 4 -2 7 4 7 10 0 38 49 35 63 -1 4 3 7 9 7 5 0 8 4 5 9 -3 5 1 12 10 15 8 3
12 10 9 16 -3 5 -2 10 2 10 5 0 14 9 21 21 11 17 11 20 0 14 -7 -3 -6 -1 3 7
8 7 22 28 30 46 7 17 17 32 20 32 4 0 9 8 13 18 7 21 39 76 56 97 7 8 9 15 6
15 -4 0 2 10 13 22 11 11 18 25 15 30 -3 4 0 8 7 8 7 0 9 3 6 7 -4 3 1 12 11
20 10 9 11 12 2 7 -10 -5 -8 1 5 17 12 13 32 44 45 69 13 25 30 51 37 58 7 8
11 18 8 23 -4 5 -2 9 3 9 5 0 17 18 27 40 10 22 22 40 27 40 4 0 8 7 8 16 0 8
7 22 15 31 8 8 13 18 10 23 -3 4 2 11 11 14 8 3 12 10 9 16 -3 5 -1 10 4 10 6
0 11 5 11 11 0 6 10 25 22 42 12 17 16 27 7 22 -9 -5 -8 -1 4 12 9 11 14 23
10 26 -3 4 0 7 7 7 7 0 10 3 7 7 -4 3 0 17 8 30 9 13 13 23 11 23 -3 0 4 21
15 46 11 26 17 49 15 51 -3 3 -1 16 4 29 10 26 16 54 26 119 10 63 11 265 2
320 -5 28 -10 59 -12 70 -6 40 -29 131 -38 148 -5 10 -11 26 -13 35 -2 9 -9
31 -16 47 -7 17 -13 33 -13 36 -2 13 -42 85 -51 91 -5 4 -7 8 -2 8 8 0 -42 81
-58 92 -5 4 -6 8 -1 8 5 0 -3 11 -17 24 -14 13 -24 26 -21 28 2 3 -28 38 -66
79 -39 41 -70 77 -70 82 0 4 -4 7 -10 7 -5 0 -19 10 -31 23 -12 12 -19 15 -14
7 4 -8 -3 -3 -16 11 -25 27 -174 129 -190 129 -4 0 -23 8 -41 18 -40 22 -135
61 -163 66 -11 2 -32 9 -47 15 -16 6 -28 8 -28 6 0 -2 -11 0 -24 5 -37 14
-127 22 -258 25 -65 1 -119 1 -120 0z"/>
</g>
</svg>
